<svg id="robot" xmlns="http://www.w3.org/2000/svg" width="79.184" height="83.188" viewBox="0 0 79.184 83.188">
  <path id="XMLID_21_" d="M79.184,53.092A39.592,39.592,0,1,1,39.592,13.5,39.6,39.6,0,0,1,79.184,53.092Z" transform="translate(0 -9.496)" fill="#144b9d"/>
  <g id="XMLID_5_" transform="translate(11.27 0)">
    <path id="XMLID_20_" d="M45.266,117.529H41.114A3.114,3.114,0,0,1,38,114.415v-5.1a3.114,3.114,0,0,1,3.114-3.114H45.3v11.329Z" transform="translate(-38 -74.704)" fill="#cfd8dc"/>
    <path id="XMLID_19_" d="M201.8,117.529h4.182a3.114,3.114,0,0,0,3.114-3.114v-5.1a3.114,3.114,0,0,0-3.114-3.114H201.8Z" transform="translate(-153.222 -74.704)" fill="#cfd8dc"/>
    <rect id="XMLID_18_" width="12.782" height="14.591" transform="translate(21.709 52.671)" fill="#c0def2"/>
    <path id="XMLID_17_" d="M99.722,67.511c0,18.358-10.8,18.358-24.111,18.358S51.5,85.3,51.5,67.511C51.5,48.056,62.3,43.4,75.611,43.4,88.927,43.37,99.722,46.988,99.722,67.511Z" transform="translate(-47.496 -30.528)" fill="#fff"/>
    <path id="XMLID_16_" d="M96.068,210.328a39.631,39.631,0,0,1-53.768-.267c0-12.753,11.24-12.278,20.434-13.968a34.568,34.568,0,0,1,12.752,0C84.857,197.784,96.068,198.08,96.068,210.328Z" transform="translate(-41.025 -137.521)" fill="#fff"/>
    <path id="XMLID_15_" d="M108.225,84.836c0,7.533-8.037.712-17.913.712-9.905,0-17.913,6.347-17.913-.712,0-8.3,1.483-15.036,17.913-15.036C107.425,69.8,108.225,76.532,108.225,84.836Z" transform="translate(-62.198 -49.099)" fill="#c0def2"/>
    <g id="XMLID_12_" transform="translate(17.468 29.538)">
      <ellipse id="XMLID_14_" cx="2.224" cy="2.224" rx="2.224" ry="2.224" fill="#0591ff"/>
      <path id="XMLID_13_" d="M158.049,101.824a2.224,2.224,0,1,1-2.224-2.224A2.221,2.221,0,0,1,158.049,101.824Z" transform="translate(-136.785 -99.6)" fill="#0591ff"/>
    </g>
    <line id="XMLID_11_" y2="9.816" transform="translate(28.115 3.084)" fill="none" stroke="#fff" stroke-miterlimit="10" stroke-width="2"/>
    <ellipse id="XMLID_9_" cx="3.084" cy="3.084" rx="3.084" ry="3.084" transform="translate(25.03)" fill="#0591ff"/>
    <path id="XMLID_8_" d="M169.489,221.295a2.195,2.195,0,1,1-2.195-2.195A2.19,2.19,0,0,1,169.489,221.295Z" transform="translate(-127.406 -154.121)" fill="#c0def2"/>
    <path id="XMLID_7_" d="M150.295,223.9a1.1,1.1,0,1,1-1.1-1.1A1.114,1.114,0,0,1,150.295,223.9Z" transform="translate(-115.448 -156.724)" fill="#c0def2"/>
  </g>
</svg>
